name rise31.4854peak64.571fall78.6902.mot
datacolumns 19
datarows 29
range 19.48159400000000 19.52826000000000
endheader
time	ground_force1_vx	ground_force1_vy	ground_force1_vz	ground_force1_px	ground_force1_py	ground_force1_pz	ground_force2_vx	ground_force2_vy	ground_force2_vz	ground_force2_px	ground_force2_py	ground_force2_pz	ground_torque1_x	ground_torque1_y	ground_torque1_z	ground_torque2_x	ground_torque2_y	ground_torque2_z	
19.48159400000000	-45.90813600000000	832.57006600000000	61.10197100000000	0.11834500000000	0.00000000000000	0.10806700000000	-2.92613100000000	15.73385100000000	4.01874600000000	0.00000000000000	0.00000000000000	0.00000000000000	0.00000000000000	23.52540400000000	0.00000000000000	0.00000000000000	1.31302400000000	0.00000000000000	
19.48326400000000	-46.25491700000000	831.48595499999999	61.15961700000000	0.11772100000000	0.00000000000000	0.10805100000000	-3.69749200000000	20.98364400000000	5.18636800000000	0.00000000000000	0.00000000000000	0.00000000000000	0.00000000000000	23.48219200000000	0.00000000000000	0.00000000000000	1.70795000000000	0.00000000000000	
19.48492300000000	-46.60869100000000	830.25987299999997	61.19144500000000	0.11711200000000	0.00000000000000	0.10803000000000	-4.47951100000000	26.70007600000000	6.40823800000000	0.34660100000000	0.00000000000000	-0.07752600000000	0.00000000000000	23.43730400000000	0.00000000000000	0.00000000000000	3.99924800000000	0.00000000000000	
19.48659100000000	-46.97021700000000	828.88995799999998	61.19675800000000	0.11651800000000	0.00000000000000	0.10800500000000	-5.24260100000000	32.76508800000000	7.64743300000000	0.35240100000000	0.00000000000000	-0.07809600000000	0.00000000000000	23.39083800000000	0.00000000000000	0.00000000000000	4.83933100000000	0.00000000000000	
19.48825900000000	-47.34022100000000	827.37444600000003	61.17489800000000	0.11593700000000	0.00000000000000	0.10797600000000	-5.95771100000000	39.05388700000000	8.86675900000000	0.35764100000000	0.00000000000000	-0.07862500000000	0.00000000000000	23.34288300000000	0.00000000000000	0.00000000000000	5.68387800000000	0.00000000000000	
19.48993200000000	-47.71939400000000	825.71166800000003	61.12525600000000	0.11536800000000	0.00000000000000	0.10794300000000	-6.59840600000000	45.44516900000000	10.03151500000000	0.36239300000000	0.00000000000000	-0.07912000000000	0.00000000000000	23.29352100000000	0.00000000000000	0.00000000000000	6.50969100000000	0.00000000000000	
19.49159900000000	-48.10838100000000	823.90004999999996	61.04726400000000	0.11481200000000	0.00000000000000	0.10790600000000	-7.14256900000000	51.83019200000000	11.11182400000000	0.36671800000000	0.00000000000000	-0.07958700000000	0.00000000000000	23.24282700000000	0.00000000000000	0.00000000000000	7.29612200000000	0.00000000000000	
19.49325900000000	-48.50778300000000	821.93810900000005	60.94040300000000	0.11426700000000	0.00000000000000	0.10786400000000	-7.57355700000000	58.11973700000000	12.08431000000000	0.37066500000000	0.00000000000000	-0.08003300000000	0.00000000000000	23.19086700000000	0.00000000000000	0.00000000000000	8.02632100000000	0.00000000000000	
19.49492800000000	-48.91814500000000	819.82445199999995	60.80420400000000	0.11373200000000	0.00000000000000	0.10781800000000	-7.88076300000000	64.24848299999999	12.93300300000000	0.37427600000000	0.00000000000000	-0.08046000000000	0.00000000000000	23.13770100000000	0.00000000000000	0.00000000000000	8.68800300000000	0.00000000000000	
19.49659700000000	-49.33995800000000	817.55777399999999	60.63824600000000	0.11320700000000	0.00000000000000	0.10776800000000	-8.05959500000000	70.17673200000000	13.64950800000000	0.37758500000000	0.00000000000000	-0.08087200000000	0.00000000000000	23.08337700000000	0.00000000000000	0.00000000000000	9.27371900000000	0.00000000000000	
19.49826000000000	-49.77365000000000	815.13685699999996	60.44216000000000	0.11269000000000	0.00000000000000	0.10771400000000	-8.11097400000000	75.88976000000000	14.23252200000000	0.38062200000000	0.00000000000000	-0.08127300000000	0.00000000000000	23.02793500000000	0.00000000000000	0.00000000000000	9.78068900000000	0.00000000000000	
19.49992400000000	-50.21958500000000	812.56056799999999	60.21562800000000	0.11218100000000	0.00000000000000	0.10765500000000	-8.04046200000000	81.39520300000000	14.68685400000000	0.38341200000000	0.00000000000000	-0.08166400000000	0.00000000000000	22.97140800000000	0.00000000000000	0.00000000000000	10.21027700000000	0.00000000000000	
19.50159000000000	-50.67805500000000	809.82785699999999	59.95838600000000	0.11167800000000	0.00000000000000	0.10759100000000	-7.85716300000000	86.71907500000000	15.02210800000000	0.38597700000000	0.00000000000000	-0.08204700000000	0.00000000000000	22.91381500000000	0.00000000000000	0.00000000000000	10.56720800000000	0.00000000000000	
19.50325700000000	-51.14927800000000	806.93775500000004	59.67022400000000	0.11118000000000	0.00000000000000	0.10752400000000	-7.57252600000000	91.90095500000000	15.25120600000000	0.38833700000000	0.00000000000000	-0.08242500000000	0.00000000000000	22.85516900000000	0.00000000000000	0.00000000000000	10.85864700000000	0.00000000000000	
19.50492500000000	-51.63339500000000	803.88937499999997	59.35098600000000	0.11068700000000	0.00000000000000	0.10745100000000	-7.19916000000000	96.98890299999999	15.38889400000000	0.39050800000000	0.00000000000000	-0.08279700000000	0.00000000000000	22.79547100000000	0.00000000000000	0.00000000000000	11.09323800000000	0.00000000000000	
19.50659400000000	-52.13046400000000	800.68190900000002	59.00057300000000	0.11019800000000	0.00000000000000	0.10737500000000	-6.74976800000000	102.03455700000001	15.45036000000000	0.39250500000000	0.00000000000000	-0.08316500000000	0.00000000000000	22.73471400000000	0.00000000000000	0.00000000000000	11.28018200000000	0.00000000000000	
19.50825700000000	-52.64045900000000	797.31462699999997	58.61894100000000	0.10971100000000	0.00000000000000	0.10729400000000	-6.23624800000000	107.08878100000000	15.45005000000000	0.39434100000000	0.00000000000000	-0.08353100000000	0.00000000000000	22.67287800000000	0.00000000000000	0.00000000000000	11.42843900000000	0.00000000000000	
19.50993400000000	-53.16326400000000	793.78687500000001	58.20610200000000	0.10922500000000	0.00000000000000	0.10720800000000	-5.66902100000000	112.19809300000000	15.40074400000000	0.39602800000000	0.00000000000000	-0.08389500000000	0.00000000000000	22.60993600000000	0.00000000000000	0.00000000000000	11.54608300000000	0.00000000000000	
19.51159000000000	-53.69867200000000	790.09807899999998	57.76212600000000	0.10873900000000	0.00000000000000	0.10711800000000	-5.05658200000000	117.40203700000001	15.31292700000000	0.39757700000000	0.00000000000000	-0.08425700000000	0.00000000000000	22.54585000000000	0.00000000000000	0.00000000000000	11.63983500000000	0.00000000000000	
19.51325800000000	-54.24638400000000	786.24774000000002	57.28713800000000	0.10825300000000	0.00000000000000	0.10702400000000	-4.40528100000000	122.73151100000000	15.19443200000000	0.39899700000000	0.00000000000000	-0.08461700000000	0.00000000000000	22.48057000000000	0.00000000000000	0.00000000000000	11.71479500000000	0.00000000000000	
19.51493000000000	-54.80600200000000	782.23543600000005	56.78132200000000	0.10776600000000	0.00000000000000	0.10692500000000	-3.71930600000000	128.20801700000001	15.05035300000000	0.40029600000000	0.00000000000000	-0.08497700000000	0.00000000000000	22.41404000000000	0.00000000000000	0.00000000000000	11.77433600000000	0.00000000000000	
19.51659400000000	-55.37703200000000	778.06081900000004	56.24491900000000	0.10727600000000	0.00000000000000	0.10682200000000	-3.00082900000000	133.84372099999999	14.88317400000000	0.40148300000000	0.00000000000000	-0.08533700000000	0.00000000000000	22.34619100000000	0.00000000000000	0.00000000000000	11.82015600000000	0.00000000000000	
19.51826200000000	-55.95887700000000	773.72361999999998	55.67822800000000	0.10678200000000	0.00000000000000	0.10671500000000	-2.25028300000000	139.64217199999999	14.69307300000000	0.40256400000000	0.00000000000000	-0.08569600000000	0.00000000000000	22.27694500000000	0.00000000000000	0.00000000000000	11.85244700000000	0.00000000000000	
19.51992500000000	-56.55084300000000	769.22364500000003	55.08160200000000	0.10628300000000	0.00000000000000	0.10660300000000	-1.46671400000000	145.59950000000001	14.47833800000000	0.40354600000000	0.00000000000000	-0.08605500000000	0.00000000000000	22.20621500000000	0.00000000000000	0.00000000000000	11.87015100000000	0.00000000000000	
19.52159200000000	-57.15213000000000	764.56077800000003	54.45545400000000	0.10578000000000	0.00000000000000	0.10648700000000	-0.64818000000000	151.70591800000000	14.23585400000000	0.40443400000000	0.00000000000000	-0.08641400000000	0.00000000000000	22.13390600000000	0.00000000000000	0.00000000000000	11.87126700000000	0.00000000000000	
19.52325900000000	-57.76183900000000	759.73498099999995	53.80025300000000	0.10527000000000	0.00000000000000	0.10636700000000	0.20784800000000	157.94736499999999	13.96160000000000	0.40523500000000	0.00000000000000	-0.08677200000000	0.00000000000000	22.05991200000000	0.00000000000000	0.00000000000000	11.85316900000000	0.00000000000000	
19.52493100000000	-58.37896800000000	754.74629700000003	53.11652400000000	0.10475200000000	0.00000000000000	0.10624300000000	1.10411600000000	164.30713100000000	13.65113100000000	0.40595400000000	0.00000000000000	-0.08713100000000	0.00000000000000	21.98411900000000	0.00000000000000	0.00000000000000	11.81292400000000	0.00000000000000	
19.52659300000000	-59.00241300000000	749.59484699999996	52.40484600000000	0.10422700000000	0.00000000000000	0.10611400000000	2.04325900000000	170.76735800000000	13.30000100000000	0.40659300000000	0.00000000000000	-0.08749000000000	0.00000000000000	21.90640400000000	0.00000000000000	0.00000000000000	11.74757100000000	0.00000000000000	
19.52826000000000	-59.63096900000000	744.28083900000001	51.66585500000000	0.10369400000000	0.00000000000000	0.10598200000000	3.02754100000000	177.31032800000000	12.90411000000000	0.40715900000000	0.00000000000000	-0.08784900000000	0.00000000000000	21.82663800000000	0.00000000000000	0.00000000000000	11.65435700000000	0.00000000000000	
